<mxfile host="app.diagrams.net" modified="2023-10-17T05:24:04.848Z" agent="Mozilla/5.0 (X11; Linux x86_64) AppleWebKit/537.36 (KHTML, like Gecko) Chrome/118.0.0.0 Safari/537.36" version="22.0.4" etag="65Q-H5R1i7Yc_pG9_bSG" type="github">
  <diagram name="Page-1" id="e99CWzrtKBJaMDXVdgBn">
    <mxGraphModel>
      <root>
        <mxCell id="0" />
        <mxCell id="1" parent="0" />
      </root>
    </mxGraphModel>
  </diagram>
</mxfile>
